<svg xmlns="http://www.w3.org/2000/svg" xmlns:xlink="http://www.w3.org/1999/xlink" version="1.1" width="256" height="256" viewBox="0 0 256 256" xml:space="preserve">
<g style="stroke: none; stroke-width: 0; stroke-dasharray: none; stroke-linecap: butt; stroke-linejoin: miter; stroke-miterlimit: 10; fill: none; fill-rule: nonzero; opacity: 1;" transform="translate(1.4065934065934016 1.4065934065934016) scale(2.81 2.81)">
	<path d="M 79.223 79.422 H 8.187 C 4.218 79.422 1 76.204 1 72.235 V 16.954 c 0 -3.969 3.218 -7.187 7.187 -7.187 h 71.036 c 3.969 0 7.187 3.218 7.187 7.187 v 55.281 C 86.409 76.204 83.192 79.422 79.223 79.422 z" style="stroke: none; stroke-width: 1; stroke-dasharray: none; stroke-linecap: butt; stroke-linejoin: miter; stroke-miterlimit: 10; fill: rgb(235,245,252); fill-rule: nonzero; opacity: 1;" transform=" matrix(1 0 0 1 0 0) " stroke-linecap="round"/>
	<path d="M 79.223 80.422 H 8.187 C 3.672 80.422 0 76.749 0 72.235 V 16.954 c 0 -4.514 3.672 -8.187 8.187 -8.187 h 71.036 c 4.514 0 8.187 3.672 8.187 8.187 v 55.281 C 87.409 76.749 83.736 80.422 79.223 80.422 z M 8.187 10.768 C 4.775 10.768 2 13.543 2 16.954 v 55.281 c 0 3.411 2.775 6.187 6.187 6.187 h 71.036 c 3.411 0 6.187 -2.775 6.187 -6.187 V 16.954 c 0 -3.411 -2.775 -6.187 -6.187 -6.187 H 8.187 z" style="stroke: none; stroke-width: 1; stroke-dasharray: none; stroke-linecap: butt; stroke-linejoin: miter; stroke-miterlimit: 10; fill: rgb(0,0,0); fill-rule: nonzero; opacity: 1;" transform=" matrix(1 0 0 1 0 0) " stroke-linecap="round"/>
	<path d="M 86.409 26.671 v -9.716 c 0 -3.969 -3.217 -7.187 -7.187 -7.187 H 8.187 C 4.217 9.768 1 12.985 1 16.954 v 9.716 H 86.409 z" style="stroke: none; stroke-width: 1; stroke-dasharray: none; stroke-linecap: butt; stroke-linejoin: miter; stroke-miterlimit: 10; fill: rgb(255,65,85); fill-rule: nonzero; opacity: 1;" transform=" matrix(1 0 0 1 0 0) " stroke-linecap="round"/>
	<path d="M 87.409 27.67 H 0 V 16.954 c 0 -4.514 3.672 -8.187 8.187 -8.187 h 71.036 c 4.514 0 8.187 3.672 8.187 8.187 V 27.67 z M 2 25.67 h 83.409 v -8.716 c 0 -3.411 -2.775 -6.187 -6.187 -6.187 H 8.187 C 4.775 10.768 2 13.543 2 16.954 V 25.67 z" style="stroke: none; stroke-width: 1; stroke-dasharray: none; stroke-linecap: butt; stroke-linejoin: miter; stroke-miterlimit: 10; fill: rgb(0,0,0); fill-rule: nonzero; opacity: 1;" transform=" matrix(1 0 0 1 0 0) " stroke-linecap="round"/>
	<circle cx="69.553" cy="67.82300000000001" r="19.443" style="stroke: none; stroke-width: 1; stroke-dasharray: none; stroke-linecap: butt; stroke-linejoin: miter; stroke-miterlimit: 10; fill: rgb(79,171,247); fill-rule: nonzero; opacity: 1;" transform="  matrix(1 0 0 1 0 0) "/>
	<path d="M 69.558 88.267 c -11.272 0 -20.443 -9.171 -20.443 -20.443 c 0 -11.271 9.171 -20.442 20.443 -20.442 C 80.829 47.381 90 56.552 90 67.823 C 90 79.096 80.829 88.267 69.558 88.267 z M 69.558 49.381 c -10.17 0 -18.443 8.273 -18.443 18.442 c 0 10.17 8.273 18.443 18.443 18.443 C 79.727 86.267 88 77.993 88 67.823 C 88 57.654 79.727 49.381 69.558 49.381 z" style="stroke: none; stroke-width: 1; stroke-dasharray: none; stroke-linecap: butt; stroke-linejoin: miter; stroke-miterlimit: 10; fill: rgb(0,0,0); fill-rule: nonzero; opacity: 1;" transform=" matrix(1 0 0 1 0 0) " stroke-linecap="round"/>
	<path d="M 77.31 75.614 c -0.234 0 -0.469 -0.082 -0.659 -0.248 l -7.752 -6.791 c -0.217 -0.189 -0.341 -0.464 -0.341 -0.752 v -8.752 c 0 -0.553 0.447 -1 1 -1 s 1 0.447 1 1 v 8.299 l 7.411 6.492 c 0.415 0.363 0.457 0.995 0.093 1.411 C 77.864 75.499 77.587 75.614 77.31 75.614 z" style="stroke: none; stroke-width: 1; stroke-dasharray: none; stroke-linecap: butt; stroke-linejoin: miter; stroke-miterlimit: 10; fill: rgb(0,0,0); fill-rule: nonzero; opacity: 1;" transform=" matrix(1 0 0 1 0 0) " stroke-linecap="round"/>
	<rect x="13.24" y="34.44" rx="0" ry="0" width="7.21" height="7.21" style="stroke: none; stroke-width: 1; stroke-dasharray: none; stroke-linecap: butt; stroke-linejoin: miter; stroke-miterlimit: 10; fill: rgb(212,222,251); fill-rule: nonzero; opacity: 1;" transform=" matrix(1 0 0 1 0 0) "/>
	<rect x="31.15" y="34.44" rx="0" ry="0" width="7.21" height="7.21" style="stroke: none; stroke-width: 1; stroke-dasharray: none; stroke-linecap: butt; stroke-linejoin: miter; stroke-miterlimit: 10; fill: rgb(212,222,251); fill-rule: nonzero; opacity: 1;" transform=" matrix(1 0 0 1 0 0) "/>
	<rect x="49.05" y="34.44" rx="0" ry="0" width="7.21" height="7.21" style="stroke: none; stroke-width: 1; stroke-dasharray: none; stroke-linecap: butt; stroke-linejoin: miter; stroke-miterlimit: 10; fill: rgb(212,222,251); fill-rule: nonzero; opacity: 1;" transform=" matrix(1 0 0 1 0 0) "/>
	<rect x="13.24" y="49.19" rx="0" ry="0" width="7.21" height="7.21" style="stroke: none; stroke-width: 1; stroke-dasharray: none; stroke-linecap: butt; stroke-linejoin: miter; stroke-miterlimit: 10; fill: rgb(212,222,251); fill-rule: nonzero; opacity: 1;" transform=" matrix(1 0 0 1 0 0) "/>
	<rect x="31.15" y="49.19" rx="0" ry="0" width="7.21" height="7.21" style="stroke: none; stroke-width: 1; stroke-dasharray: none; stroke-linecap: butt; stroke-linejoin: miter; stroke-miterlimit: 10; fill: rgb(212,222,251); fill-rule: nonzero; opacity: 1;" transform=" matrix(1 0 0 1 0 0) "/>
	<rect x="13.24" y="63.94" rx="0" ry="0" width="7.21" height="7.21" style="stroke: none; stroke-width: 1; stroke-dasharray: none; stroke-linecap: butt; stroke-linejoin: miter; stroke-miterlimit: 10; fill: rgb(212,222,251); fill-rule: nonzero; opacity: 1;" transform=" matrix(1 0 0 1 0 0) "/>
	<rect x="31.15" y="63.94" rx="0" ry="0" width="7.21" height="7.21" style="stroke: none; stroke-width: 1; stroke-dasharray: none; stroke-linecap: butt; stroke-linejoin: miter; stroke-miterlimit: 10; fill: rgb(212,222,251); fill-rule: nonzero; opacity: 1;" transform=" matrix(1 0 0 1 0 0) "/>
	<rect x="66.96" y="34.44" rx="0" ry="0" width="7.21" height="7.21" style="stroke: none; stroke-width: 1; stroke-dasharray: none; stroke-linecap: butt; stroke-linejoin: miter; stroke-miterlimit: 10; fill: rgb(212,222,251); fill-rule: nonzero; opacity: 1;" transform=" matrix(1 0 0 1 0 0) "/>
	<path d="M 20.448 42.653 h -7.21 c -0.552 0 -1 -0.448 -1 -1 v -7.209 c 0 -0.552 0.448 -1 1 -1 h 7.21 c 0.552 0 1 0.448 1 1 v 7.209 C 21.448 42.205 21 42.653 20.448 42.653 z M 14.238 40.653 h 5.21 v -5.209 h -5.21 V 40.653 z" style="stroke: none; stroke-width: 1; stroke-dasharray: none; stroke-linecap: butt; stroke-linejoin: miter; stroke-miterlimit: 10; fill: rgb(0,0,0); fill-rule: nonzero; opacity: 1;" transform=" matrix(1 0 0 1 0 0) " stroke-linecap="round"/>
	<path d="M 38.355 42.653 h -7.209 c -0.552 0 -1 -0.448 -1 -1 v -7.209 c 0 -0.552 0.448 -1 1 -1 h 7.209 c 0.552 0 1 0.448 1 1 v 7.209 C 39.355 42.205 38.908 42.653 38.355 42.653 z M 32.146 40.653 h 5.209 v -5.209 h -5.209 V 40.653 z" style="stroke: none; stroke-width: 1; stroke-dasharray: none; stroke-linecap: butt; stroke-linejoin: miter; stroke-miterlimit: 10; fill: rgb(0,0,0); fill-rule: nonzero; opacity: 1;" transform=" matrix(1 0 0 1 0 0) " stroke-linecap="round"/>
	<path d="M 56.263 42.653 h -7.209 c -0.553 0 -1 -0.448 -1 -1 v -7.209 c 0 -0.552 0.447 -1 1 -1 h 7.209 c 0.553 0 1 0.448 1 1 v 7.209 C 57.263 42.205 56.815 42.653 56.263 42.653 z M 50.054 40.653 h 5.209 v -5.209 h -5.209 V 40.653 z" style="stroke: none; stroke-width: 1; stroke-dasharray: none; stroke-linecap: butt; stroke-linejoin: miter; stroke-miterlimit: 10; fill: rgb(0,0,0); fill-rule: nonzero; opacity: 1;" transform=" matrix(1 0 0 1 0 0) " stroke-linecap="round"/>
	<path d="M 74.171 42.653 h -7.21 c -0.553 0 -1 -0.448 -1 -1 v -7.209 c 0 -0.552 0.447 -1 1 -1 h 7.21 c 0.553 0 1 0.448 1 1 v 7.209 C 75.171 42.205 74.724 42.653 74.171 42.653 z M 67.961 40.653 h 5.21 v -5.209 h -5.21 V 40.653 z" style="stroke: none; stroke-width: 1; stroke-dasharray: none; stroke-linecap: butt; stroke-linejoin: miter; stroke-miterlimit: 10; fill: rgb(0,0,0); fill-rule: nonzero; opacity: 1;" transform=" matrix(1 0 0 1 0 0) " stroke-linecap="round"/>
	<path d="M 20.448 57.4 h -7.21 c -0.552 0 -1 -0.447 -1 -1 v -7.21 c 0 -0.553 0.448 -1 1 -1 h 7.21 c 0.552 0 1 0.447 1 1 v 7.21 C 21.448 56.953 21 57.4 20.448 57.4 z M 14.238 55.4 h 5.21 v -5.21 h -5.21 V 55.4 z" style="stroke: none; stroke-width: 1; stroke-dasharray: none; stroke-linecap: butt; stroke-linejoin: miter; stroke-miterlimit: 10; fill: rgb(0,0,0); fill-rule: nonzero; opacity: 1;" transform=" matrix(1 0 0 1 0 0) " stroke-linecap="round"/>
	<path d="M 38.355 57.4 h -7.209 c -0.552 0 -1 -0.447 -1 -1 v -7.21 c 0 -0.553 0.448 -1 1 -1 h 7.209 c 0.552 0 1 0.447 1 1 v 7.21 C 39.355 56.953 38.908 57.4 38.355 57.4 z M 32.146 55.4 h 5.209 v -5.21 h -5.209 V 55.4 z" style="stroke: none; stroke-width: 1; stroke-dasharray: none; stroke-linecap: butt; stroke-linejoin: miter; stroke-miterlimit: 10; fill: rgb(0,0,0); fill-rule: nonzero; opacity: 1;" transform=" matrix(1 0 0 1 0 0) " stroke-linecap="round"/>
	<path d="M 20.448 72.147 h -7.21 c -0.552 0 -1 -0.447 -1 -1 v -7.209 c 0 -0.553 0.448 -1 1 -1 h 7.21 c 0.552 0 1 0.447 1 1 v 7.209 C 21.448 71.7 21 72.147 20.448 72.147 z M 14.238 70.147 h 5.21 v -5.209 h -5.21 V 70.147 z" style="stroke: none; stroke-width: 1; stroke-dasharray: none; stroke-linecap: butt; stroke-linejoin: miter; stroke-miterlimit: 10; fill: rgb(0,0,0); fill-rule: nonzero; opacity: 1;" transform=" matrix(1 0 0 1 0 0) " stroke-linecap="round"/>
	<path d="M 38.355 72.147 h -7.209 c -0.552 0 -1 -0.447 -1 -1 v -7.209 c 0 -0.553 0.448 -1 1 -1 h 7.209 c 0.552 0 1 0.447 1 1 v 7.209 C 39.355 71.7 38.908 72.147 38.355 72.147 z M 32.146 70.147 h 5.209 v -5.209 h -5.209 V 70.147 z" style="stroke: none; stroke-width: 1; stroke-dasharray: none; stroke-linecap: butt; stroke-linejoin: miter; stroke-miterlimit: 10; fill: rgb(0,0,0); fill-rule: nonzero; opacity: 1;" transform=" matrix(1 0 0 1 0 0) " stroke-linecap="round"/>
	<rect x="16.93" y="2.73" rx="0" ry="0" width="7.2" height="13.38" style="stroke: none; stroke-width: 1; stroke-dasharray: none; stroke-linecap: butt; stroke-linejoin: miter; stroke-miterlimit: 10; fill: rgb(212,222,251); fill-rule: nonzero; opacity: 1;" transform=" matrix(1 0 0 1 0 0) "/>
	<rect x="63.28" y="2.73" rx="0" ry="0" width="7.2" height="13.38" style="stroke: none; stroke-width: 1; stroke-dasharray: none; stroke-linecap: butt; stroke-linejoin: miter; stroke-miterlimit: 10; fill: rgb(212,222,251); fill-rule: nonzero; opacity: 1;" transform=" matrix(1 0 0 1 0 0) "/>
	<path d="M 24.127 17.112 h -7.195 c -0.552 0 -1 -0.448 -1 -1 V 2.734 c 0 -0.552 0.448 -1 1 -1 h 7.195 c 0.552 0 1 0.448 1 1 v 13.378 C 25.127 16.665 24.68 17.112 24.127 17.112 z M 17.933 15.112 h 5.195 V 3.734 h -5.195 V 15.112 z" style="stroke: none; stroke-width: 1; stroke-dasharray: none; stroke-linecap: butt; stroke-linejoin: miter; stroke-miterlimit: 10; fill: rgb(0,0,0); fill-rule: nonzero; opacity: 1;" transform=" matrix(1 0 0 1 0 0) " stroke-linecap="round"/>
	<path d="M 70.477 17.112 h -7.195 c -0.553 0 -1 -0.448 -1 -1 V 2.734 c 0 -0.552 0.447 -1 1 -1 h 7.195 c 0.553 0 1 0.448 1 1 v 13.378 C 71.477 16.665 71.029 17.112 70.477 17.112 z M 64.281 15.112 h 5.195 V 3.734 h -5.195 V 15.112 z" style="stroke: none; stroke-width: 1; stroke-dasharray: none; stroke-linecap: butt; stroke-linejoin: miter; stroke-miterlimit: 10; fill: rgb(0,0,0); fill-rule: nonzero; opacity: 1;" transform=" matrix(1 0 0 1 0 0) " stroke-linecap="round"/>
</g>
</svg>