<?xml version="1.0" encoding="iso-8859-1"?>
<!-- Uploaded to: SVG Repo, www.svgrepo.com, Generator: SVG Repo Mixer Tools -->
<svg version="1.1" id="Layer_1" xmlns="http://www.w3.org/2000/svg" xmlns:xlink="http://www.w3.org/1999/xlink" 
	 viewBox="0 0 390.4 390.4" xml:space="preserve">
<polygon style="fill:#FFC10D;" points="282.054,90.053 282.054,269.446 368.81,269.446 368.81,184.889 318.386,90.053 "/>
<path style="fill:#194F82;" d="M297.763,211.459c0,5.947,4.848,10.861,10.861,10.861h14.093c5.948,0,10.861-4.848,10.861-10.861
	c0-5.947-4.848-10.861-10.861-10.861h-14.093C302.676,200.598,297.763,205.446,297.763,211.459z"/>
<path style="fill:#FFFFFF;" d="M21.917,333.899h16.291c4.848-20.04,22.756-34.715,44.412-34.715s39.564,14.61,44.412,34.715h140.929
	c4.848-20.04,22.756-34.715,44.412-34.715c21.657,0,39.564,14.61,44.412,34.715h11.378v-42.796H21.4v42.796H21.917z"/>
<g>
	<path style="fill:#FFC10D;" d="M106.992,344.76c0-12.994-10.861-23.855-24.372-23.855s-24.372,10.861-24.372,23.855
		c0,12.994,10.861,23.855,24.372,23.855S106.992,357.754,106.992,344.76z"/>
	<path style="fill:#FFC10D;" d="M336.81,344.76c0-12.994-10.861-23.855-24.372-23.855c-13.576,0-24.372,10.861-24.372,23.855
		c0,12.994,10.861,23.855,24.372,23.855C325.949,368.614,336.81,357.754,336.81,344.76z"/>
</g>
<g>
	<rect x="38.208" y="149.075" style="fill:#56ACE0;" width="46.093" height="120.307"/>
	<rect x="167.178" y="149.075" style="fill:#56ACE0;" width="46.093" height="120.307"/>
</g>
<g>
	<rect x="105.957" y="149.075" style="fill:#FFFFFF;" width="39.564" height="120.307"/>
	<rect x="105.957" y="90.053" style="fill:#FFFFFF;" width="39.564" height="36.848"/>
</g>
<path style="fill:#194F82;" d="M389.367,177.261L334.676,74.279c-1.616-3.814-5.43-5.947-9.762-5.947h-53.657
	c-5.947,0-10.861,4.848-10.861,10.861v190.255h-25.471V149.075h5.43c5.947,0,10.861-4.848,10.861-10.861V79.127
	c0-5.947-4.848-10.861-10.861-10.861h-41.18c4.331-7.046,6.529-14.61,6.529-23.273C205.707,20.04,184.567,0,159.614,0
	c-13.576,0-25.988,5.947-34.133,15.709c-8.145-9.697-20.622-15.644-34.198-15.644c-24.954,0-46.093,20.04-46.093,44.994
	c0,8.663,2.715,16.808,6.529,23.273H11.121c-5.947,0-10.861,4.848-10.861,10.861v59.087c0,5.947,4.848,10.861,10.861,10.861h5.43
	v120.307h-5.43c-5.947,0-10.861,4.849-10.861,10.861v64.517c0,5.947,4.848,10.861,10.861,10.861h27.087
	c4.848,20.04,22.756,34.715,44.412,34.715s39.564-14.61,44.412-34.715h140.929c4.848,20.04,22.756,34.715,44.412,34.715
	c21.657,0,39.564-14.61,44.412-34.715h22.238c5.947,0,10.861-4.848,10.861-10.861v-162.65
	C390.466,180.558,389.949,178.877,389.367,177.261z M368.81,333.899h-11.378c-4.848-20.04-22.756-34.715-44.412-34.715
	s-39.564,14.61-44.412,34.715H127.679c-4.848-20.04-22.756-34.715-44.412-34.715s-39.564,14.61-44.412,34.715H22.499v-42.796
	h346.828v42.796H368.81z M312.438,368.614c-13.576,0-24.372-10.861-24.372-23.855s10.861-23.855,24.372-23.855
	c13.576,0,24.372,10.861,24.372,23.855S325.949,368.614,312.438,368.614z M83.202,368.614c-13.576,0-24.372-10.861-24.372-23.855
	s10.861-23.855,24.372-23.855s24.372,10.861,24.372,23.855C106.992,357.754,96.196,368.614,83.202,368.614z M105.957,127.418V90.57
	h39.564v36.848H105.957z M213.27,149.075v120.307h-46.093V149.075H213.27z M145.521,269.446h-39.564V149.075h39.564V269.446z
	 M38.208,149.075h46.093v120.307H38.208V149.075z M230.079,127.418h-62.836V90.57h62.319v36.848H230.079z M21.917,90.053h62.319
	v37.366H21.917V90.053z M368.81,269.446h-86.756V90.053h36.331l50.424,94.836L368.81,269.446L368.81,269.446z M136.858,45.059
	c0-12.994,10.279-23.273,23.273-23.273s24.372,10.279,24.372,23.273s-10.279,23.273-23.273,23.273h-24.372
	C136.858,68.331,136.858,45.059,136.858,45.059z M91.864,21.721c12.994,0,23.273,10.279,23.273,23.273v23.273H90.765
	c-12.994,0-23.273-10.279-23.273-23.273S78.87,21.721,91.864,21.721z"/>
<g>
	<rect x="167.178" y="90.57" style="fill:#56ACE0;" width="62.319" height="36.848"/>
	<rect x="21.917" y="90.053" style="fill:#56ACE0;" width="62.319" height="37.366"/>
</g>
</svg>